<svg width="54" height="54" viewBox="0 0 54 54" fill="none" xmlns="http://www.w3.org/2000/svg">
<path d="M44.2648 0H9.73519C4.35859 0 0 4.35859 0 9.73519V44.2648C0 49.6414 4.35859 54 9.73519 54H44.2648C49.6414 54 54 49.6414 54 44.2648V9.73519C54 4.35859 49.6414 0 44.2648 0Z" fill="#1E3101"/>
<path d="M44.1419 22.7919V18.7918C44.1419 16.9715 43.1032 15.3108 41.4664 14.5143L29.0815 8.4874C27.7675 7.84795 26.2324 7.84795 24.9184 8.4874L12.5334 14.5143C10.9196 15.2997 9.88783 16.9254 9.85926 18.7157C9.85887 18.7411 9.85792 18.7664 9.85792 18.7918V24.4014C9.85792 25.6376 10.6916 26.7183 11.8873 27.0322L36.1864 33.3743C36.3854 33.4236 36.4111 33.6962 36.2248 33.7818L28.1817 37.5902C27.435 37.9503 26.5649 37.9503 25.8182 37.5902L18.7367 34.1743C17.7961 33.7206 17.1984 32.7686 17.1984 31.7244V31.2879H9.85791V35.2622C9.85791 37.0884 10.9034 38.7534 12.5482 39.5468L24.9332 45.5208C26.239 46.1507 27.7608 46.1507 29.0667 45.5208L41.4516 39.5468C43.0252 38.7878 44.0495 37.2309 44.1354 35.4985C44.1393 35.42 44.1419 35.3413 44.1419 35.2622V29.8142C44.1419 28.578 43.3083 27.4972 42.1126 27.1833L17.676 20.7678L17.7515 20.7851C17.7265 20.7785 17.7044 20.7683 17.6851 20.7555C17.5543 20.6688 17.554 20.4585 17.7104 20.381L25.8097 16.415C26.5611 16.0493 27.4388 16.0493 28.1901 16.415L35.2716 19.8611C36.2076 20.3165 36.8015 21.2661 36.8015 22.3069V22.7919L44.1419 22.7919Z" fill="#99E83F"/>
</svg>
