<svg width="54" height="54" viewBox="0 0 54 54" fill="none" xmlns="http://www.w3.org/2000/svg">
<path d="M44.2648 0H9.73519C4.35859 0 0 4.35859 0 9.73519V44.2648C0 49.6414 4.35859 54 9.73519 54H44.2648C49.6414 54 54 49.6414 54 44.2648V9.73519C54 4.35859 49.6414 0 44.2648 0Z" fill="#00005B"/>
<path d="M26.4439 15.1434L26.3325 21.3598C24.7788 20.3607 23.0024 19.8798 20.6343 19.8798C16.2681 19.8798 13.8257 22.8029 13.8257 26.6142C13.8257 31.2765 16.6382 33.7558 20.8198 33.7558C22.8545 33.7558 24.6675 33.4967 26.5552 32.4606L26.5918 38.5289C25.186 39.2321 23.1509 39.6762 20.0054 39.713C10.5698 39.7501 6.42529 33.5707 6.42529 26.7252C6.42529 20.4718 11.0508 14.0333 20.1167 13.9594C22.8179 13.9222 25.1118 14.3292 26.4439 15.1434Z" fill="#9999FF"/>
<path d="M47.293 39.2329H40.8174V27.7622C40.8174 25.801 39.8921 24.7649 38.1162 24.7649C37.2651 24.7649 36.4512 24.9868 35.8589 25.3569V39.2329H29.3833V13.6641H35.8589V20.2505C36.9692 19.8066 38.227 19.5845 39.8555 19.5845C44.0366 19.5845 47.293 21.9158 47.293 27.4661V39.2329Z" fill="#9999FF"/>
</svg>
