<svg width="54" height="54" viewBox="0 0 54 54" fill="none" xmlns="http://www.w3.org/2000/svg">
<path d="M44.2648 0H9.73519C4.35859 0 0 4.35859 0 9.73519V44.2648C0 49.6414 4.35859 54 9.73519 54H44.2648C49.6414 54 54 49.6414 54 44.2648V9.73519C54 4.35859 49.6414 0 44.2648 0Z" fill="#000B1D"/>
<path d="M19.5049 14.4309C26.5351 14.4309 30.4946 17.7241 30.4946 23.2376C30.4946 29.676 25.1289 32.2661 20.0967 32.2661H16.6924V39.2227H9.81006V14.4309H19.5049ZM16.6924 20.3145V26.3828H19.7266C21.8359 26.3828 23.3164 25.5317 23.3164 23.3855C23.3164 21.4243 22.0581 20.3145 19.875 20.3145L16.6924 20.3145Z" fill="white"/>
<path d="M34.1631 25.2356H31.7578V20.0923H34.1631C34.2739 15.874 37.0493 13.4688 41.4155 13.4688C42.5254 13.4688 43.5986 13.5798 44.1904 13.802L44.1538 18.5752C43.7466 18.4272 43.1548 18.3533 42.6367 18.3533C41.1562 18.3533 40.7124 19.0193 40.6387 20.0923H44.1538V25.2356H40.6387V39.2226H34.1631L34.1631 25.2356Z" fill="white"/>
</svg>
