<svg width="54" height="54" viewBox="0 0 54 54" fill="none" xmlns="http://www.w3.org/2000/svg">
<path d="M44.2648 0H9.73519C4.35859 0 0 4.35859 0 9.73519V44.2648C0 49.6414 4.35859 54 9.73519 54H44.2648C49.6414 54 54 49.6414 54 44.2648V9.73519C54 4.35859 49.6414 0 44.2648 0Z" fill="white"/>
<path fill-rule="evenodd" clip-rule="evenodd" d="M29.1943 43.3047C29.278 43.3047 29.3516 43.3633 29.3516 43.4541C29.3515 43.563 29.2532 43.5996 29.2246 43.5996L29.3574 43.7949H29.2764L29.1475 43.6016H29.0576V43.7949H28.9922V43.3047H29.1943ZM29.0576 43.543H29.1943C29.2371 43.5429 29.2841 43.5045 29.2842 43.4541C29.2842 43.3996 29.2372 43.3613 29.1943 43.3613H29.0576V43.543Z" fill="#EB1000"/>
<path fill-rule="evenodd" clip-rule="evenodd" d="M29.1572 43.1211C29.3979 43.1211 29.5898 43.3108 29.5898 43.5488C29.5898 43.7849 29.398 43.9766 29.1572 43.9766C28.9187 43.9764 28.7256 43.7848 28.7256 43.5488C28.7256 43.3109 28.9187 43.1213 29.1572 43.1211ZM29.1572 43.1797C28.9493 43.1799 28.7822 43.3432 28.7822 43.5488C28.7822 43.7525 28.9493 43.9197 29.1572 43.9199C29.3633 43.9199 29.5312 43.7526 29.5312 43.5488C29.5312 43.343 29.3633 43.1797 29.1572 43.1797Z" fill="#EB1000"/>
<path fill-rule="evenodd" clip-rule="evenodd" d="M26.9619 12C31.75 12 35.3611 12.4214 35.4072 12.4268C35.4072 12.4268 41.2557 20.5585 42.8936 26.2666C35.8127 37.6732 27.2366 43.6676 26.9473 43.748C26.6538 43.6689 17.5793 37.5734 11 26.2666C12.6378 20.5585 18.4863 12.4268 18.4863 12.4268C18.4863 12.4268 22.1428 12 26.9619 12ZM23.584 32.9873L24.4795 35.3135H29.415L30.3105 32.9873L26.9473 32.4688L23.584 32.9873ZM26.9512 19.3311L21.7246 17.582L18.1484 19.5576L25.1846 21.9414L23.126 27.7305C23.0973 27.8092 22.9789 27.7856 22.9834 27.7021L23.1855 23.9883L18.1885 20.626L21.5801 32.2793C21.5905 32.315 21.6271 32.3375 21.6641 32.3311L25.8691 31.6006L26.4463 29.9336L24.2686 28.2891C24.2152 28.2458 24.2464 28.1602 24.3154 28.1602H29.5879C29.6568 28.1603 29.6871 28.2459 29.6338 28.2891L27.457 29.9336L28.0332 31.6016L32.2441 32.332C32.2811 32.3384 32.3168 32.316 32.3271 32.2803L35.7139 20.626L30.7168 23.9883L30.9189 27.7021C30.9235 27.7856 30.8051 27.8092 30.7764 27.7305L28.7178 21.9414L35.7461 19.5586L32.1357 17.582L26.9512 19.3311Z" fill="#EB1000"/>
</svg>
