<svg width="54" height="54" viewBox="0 0 54 54" fill="none" xmlns="http://www.w3.org/2000/svg">
<path d="M44.2648 0H9.73519C4.35859 0 0 4.35859 0 9.73519V44.2648C0 49.6414 4.35859 54 9.73519 54H44.2648C49.6414 54 54 49.6414 54 44.2648V9.73519C54 4.35859 49.6414 0 44.2648 0Z" fill="#00005B"/>
<path d="M13.667 38.9664V15.629C13.667 15.4464 13.74 15.3733 13.9226 15.3733C15.42 15.3003 18.3053 15.2638 21.0809 15.2638C28.4583 15.2638 30.9783 19.3542 30.9783 23.2986C30.9783 29.2151 26.4131 31.7351 20.8253 31.7351C19.8026 31.7351 19.62 31.7351 18.7435 31.7351V38.9299C18.7435 39.149 18.6705 39.222 18.4148 39.222H13.9592C13.7766 39.222 13.667 39.149 13.667 38.9664ZM18.7435 19.7194V27.2794C19.3644 27.316 19.7661 27.316 20.7887 27.316C23.6374 27.316 25.9748 26.4394 25.9748 23.4081C25.9748 21.1073 24.4044 19.6464 21.1905 19.6464C20.0583 19.6464 19.0722 19.6829 18.7435 19.7194Z" fill="#9999FF"/>
<path d="M33.2115 34.5473V13.6568C33.2115 13.4377 33.3211 13.3281 33.5768 13.3281H37.9594C38.1785 13.3281 38.2881 13.4377 38.2881 13.6568V34.109C38.2881 35.1316 38.6168 35.4968 39.4933 35.4968C39.7855 35.4968 39.8585 35.4968 40.1507 35.4603C40.2968 35.4603 40.3333 35.4968 40.3333 35.6794V38.8568C40.3333 39.1125 40.2968 39.1855 40.1142 39.2951C39.6394 39.4777 38.982 39.5873 37.8133 39.5873C35.2202 39.5873 33.2115 38.6012 33.2115 34.5473Z" fill="#9999FF"/>
</svg>
