<svg width="54" height="54" viewBox="0 0 54 54" fill="none" xmlns="http://www.w3.org/2000/svg">
<path d="M44.2648 0H9.73519C4.35859 0 0 4.35859 0 9.73519V44.2648C0 49.6414 4.35859 54 9.73519 54H44.2648C49.6414 54 54 49.6414 54 44.2648V9.73519C54 4.35859 49.6414 0 44.2648 0Z" fill="#000B1D"/>
<path d="M29.4872 22.8076C28.1942 27.1415 27.1061 31.3191 25.813 35.4081C25.079 37.7149 24.2752 39.9168 23.2617 41.3147C22.1433 42.8873 20.0462 44.3903 17.53 44.3903C15.7475 44.3903 14 43.5514 14 41.6991C14 40.5457 15.1882 39.4623 16.1319 39.4623C16.3311 39.4545 16.5284 39.5027 16.7014 39.6016C16.8744 39.7005 17.0162 39.846 17.1105 40.0216C17.9842 41.5943 18.8231 42.5029 19.2076 42.5029C19.592 42.5029 19.9065 41.9787 20.5355 39.7071L25.1228 22.8105L21.8224 22.8069C21.5776 22.0728 21.9259 21.194 22.3452 21.0192H25.6305C26.2595 18.9921 27.0012 16.9199 28.0498 15.0676C29.6225 12.2368 32.1388 10 35.5987 10C38.2199 10 39.3033 11.2582 39.3033 12.866C39.2684 14.5784 37.7657 15.4521 37.0666 15.4521C36.5075 15.4521 36.2279 15.0328 36.0531 14.4386C35.459 12.2019 34.6901 11.5378 34.2357 11.5378C33.7815 11.5378 33.0823 12.3765 32.3136 14.1239C31.3 16.3258 30.6181 18.7242 29.9892 21.0307L33.9861 21.0255C34.2306 21.5148 34.0319 22.5276 33.4378 22.8072L29.4872 22.8076Z" fill="white"/>
</svg>
