<svg width="54" height="54" viewBox="0 0 54 54" fill="none" xmlns="http://www.w3.org/2000/svg">
<path d="M44.26 0H9.74C4.36075 0 0 4.36075 0 9.74V44.26C0 49.6393 4.36075 54 9.74 54H44.26C49.6393 54 54 49.6393 54 44.26V9.74C54 4.36075 49.6393 0 44.26 0Z" fill="#001E36"/>
<path d="M18.7398 14.4297C25.7698 14.4297 29.7298 17.7197 29.7298 23.2397C29.7298 29.6797 24.3598 32.2697 19.3298 32.2697H15.9298V39.2297H9.0498V14.4297H18.7498H18.7398ZM15.9298 20.3097V26.3797H18.9598C21.0698 26.3797 22.5498 25.5297 22.5498 23.3797C22.5498 21.4197 21.2898 20.3097 19.1098 20.3097H15.9298Z" fill="#31A8FF"/>
<path d="M31.4299 37.9995L31.4699 32.2595C33.4299 33.5595 36.1699 34.3695 38.0599 34.3695C39.3499 34.3695 39.9499 33.9995 39.9499 33.3295C39.9499 32.5895 39.1399 32.2895 37.5799 31.8095C34.5799 30.9195 31.2899 29.6995 31.2899 25.7795C31.2899 21.8595 34.5799 19.5595 39.3599 19.5595C41.6199 19.5595 43.4699 19.8895 45.0999 20.5995L45.0599 26.0795C43.7699 25.2995 41.2099 24.5995 39.5499 24.5995C38.3299 24.5995 37.8499 24.9695 37.8499 25.5295C37.8499 26.1995 38.4399 26.3795 40.2199 26.9395C43.6599 27.9795 46.5499 29.0895 46.5499 33.1195C46.5499 37.1495 43.3999 39.5595 38.4799 39.5595C35.8899 39.5595 33.4499 39.1195 31.4499 38.0095L31.4299 37.9995Z" fill="#31A8FF"/>
</svg>
