<svg width="54" height="54" viewBox="0 0 54 54" fill="none" xmlns="http://www.w3.org/2000/svg">
<path d="M44.2692 0H9.73958C4.36299 0 0.00439453 4.35859 0.00439453 9.73519V44.2648C0.00439453 49.6414 4.36299 54 9.73958 54H44.2692C49.6458 54 54.0044 49.6414 54.0044 44.2648V9.73519C54.0044 4.35859 49.6458 0 44.2692 0Z" fill="#00005B"/>
<path d="M6.48682 14.4297H16.4692C23.3091 14.4297 27.3765 17.3159 27.3765 22.9773C27.3765 26.8257 25.269 28.9717 22.644 30.1558L28.8179 39.2214H20.647L15.6929 31.4138H13.3638V39.2214H6.48683L6.48682 14.4297ZM13.3638 20.165V25.6785H16.9497C18.9834 25.6785 20.3516 24.7166 20.3516 22.9773C20.3516 21.4602 19.4644 20.165 16.9868 20.165H13.3638Z" fill="#9999FF"/>
<path d="M30.2935 31.7842V19.9062H36.7637V31.488C36.7637 33.5603 37.7622 34.4114 39.4258 34.4114C40.2021 34.4114 40.8677 34.3743 41.4224 34.1523V19.9063H47.8921V37.5935C45.4155 38.8516 42.7534 39.6287 39.3887 39.6287C33.0664 39.6287 30.2935 37.1125 30.2935 31.7842Z" fill="#9999FF"/>
</svg>
