<svg width="54" height="55" viewBox="0 0 54 55" fill="none" xmlns="http://www.w3.org/2000/svg">
<path d="M50.238 40.7438V13.7577L26.868 0.265625L3.49805 13.7577V40.7438L26.868 54.2359L50.238 40.7438Z" fill="#F79136"/>
<path fill-rule="evenodd" clip-rule="evenodd" d="M48.7363 14.625V39.877L26.8682 52.502L5 39.877V14.625L26.8682 2L48.7363 14.625ZM6.71582 15.584L6.72461 38.9316L26.9482 50.5967L40.6816 42.6611C40.6409 42.6708 40.6101 42.6742 40.5928 42.6699C40.3049 42.597 40.0499 42.3987 39.9463 42.2246C39.7278 41.1766 39.5887 40.8052 39.3545 40.3643C38.557 39.1681 37.317 37.62 36.1875 36.3311C35.9846 35.3585 35.6084 34.4119 35.4834 34.0908C34.1021 34.058 31.1382 32.5626 29.2539 33.2891C27.9643 33.7866 23.0016 38.0548 22.3721 38.6797C22.0064 38.7573 21.3682 38.7496 20.8916 38.5557C20.454 37.7918 15.3931 32.7911 14.9619 32.75C14.53 32.7088 12.8606 32.7303 12.6348 32.8174C12.4074 32.9055 10.9682 33.663 10.916 33.4414C10.8648 33.219 11.3347 32.4726 11.71 32.04C12.1261 31.8621 14.4108 30.5576 14.8984 30.3867C15.3861 30.2159 15.641 30.9651 16 31.7607C16.3591 32.5561 20.1462 33.5781 20.3379 33.8867C20.526 34.1948 21.5215 35.6445 21.5215 35.6445C21.8299 34.9831 24.1153 31.6914 25.0947 30.3965C24.6235 28.761 24.2492 26.0213 24.0576 25.0977C24.1119 23.3006 24.7979 20.4053 24.7979 20.4053L21.1328 18.2051L17.0498 20.9814L17.3359 22.584C17.3301 22.5993 16.8371 23.8899 16.7568 24.0713C16.5236 23.8884 16.5055 23.5421 16.5049 23.5283C16.4925 23.5478 16.1156 24.1369 15.9023 24.2129C15.6846 24.2892 14.7539 23.8408 14.7539 23.8408L14.2832 22.2842L15.5361 20.9062C15.5455 20.8971 20.3136 16.2632 20.5889 16.1357C21.4381 16.0312 25.681 17.5485 25.7119 17.5596C25.7119 17.5596 27.8596 18.0948 28.624 18.1338C29.4489 17.6615 30.2188 17.2191 30.2549 16.4863C30.2668 15.0929 30.1602 14.1074 30.1602 14.1074C30.1564 14.0818 29.953 12.6808 30.8955 11.8154C31.8461 10.9429 32.7508 10.4488 34.4658 10.7383C35.6703 10.9416 36.4312 11.8162 36.7412 12.3867C37.0381 12.933 37.1678 13.7129 37.1006 14.8936C37.0914 15.0538 37.0672 15.2628 37.0371 15.4404C36.8438 15.4771 36.4845 15.6022 36.3984 15.9629C36.2928 16.4077 36.9141 17.2577 36.9199 17.2656L36.6641 17.5049L36.0479 17.4688L36.0088 18.126L35.6465 18.207L35.3311 19.125L34.4912 19.4033C34.4856 19.4008 32.7509 18.6003 32.6162 18.6172C32.4802 18.6343 31.7601 18.7631 31.4121 19.7256C32.6854 20.949 32.6875 20.9082 32.6875 20.9082L36.3408 23.3818C36.3408 23.3818 40.4744 21.8997 40.9766 21.1162C41.0263 20.3007 40.6543 19.5059 40.6543 19.5059C40.6543 19.5059 41.3599 18.2371 41.2529 18.0635C41.1457 17.8901 41.7056 18.0146 41.6475 18.3721C41.5622 18.896 41.9816 18.2153 42.2422 18.0371C42.5059 18.0655 43.1039 18.3482 43.3164 18.4648C43.4507 18.7666 43.7307 19.4317 43.7148 19.7803C43.5027 20.133 42.0688 21.4704 41.9736 21.7061C41.8787 21.9415 37.1498 25.4683 36.4033 25.8252C35.7802 25.7817 32.4173 23.8157 31.6289 23.293C31.0331 23.797 30.7101 25.0201 30.2373 26.3789C30.0393 27.4289 30.7377 29.3662 31.0508 29.5049C31.3654 29.6441 36.0127 31.1043 37.2627 31.876C37.7176 32.2882 37.863 32.5684 38.0918 32.8936C38.4526 34.1719 38.8396 35.8158 40.7236 39.8643C41.6722 39.9703 41.8981 39.9238 42.707 39.9795C43.6498 39.8369 44.5365 39.6068 44.792 39.4814C45.1454 39.3081 44.8664 40.0627 44.749 40.3105L47.1631 38.916L47.1533 15.5693L26.9307 3.90332L6.71582 15.584Z" fill="black"/>
</svg>
