<svg width="54" height="54" viewBox="0 0 54 54" fill="none" xmlns="http://www.w3.org/2000/svg">
<path d="M44.2648 0H9.73519C4.35859 0 0 4.35859 0 9.73519V44.2648C0 49.6414 4.35859 54 9.73519 54H44.2648C49.6414 54 54 49.6414 54 44.2648V9.73519C54 4.35859 49.6414 0 44.2648 0Z" fill="#1E3101"/>
<path d="M18.2793 46.6405C18.2793 46.7152 18.2926 46.7526 18.3457 46.7841C18.7391 47.0039 19.3362 47.1221 19.9688 47.1221C21.4076 47.1221 22.2952 46.3128 22.2952 45.1296C22.2952 44.3417 21.9702 43.6809 20.7326 43.0178L20.3838 42.8351C19.6397 42.4382 19.4352 42.1571 19.4352 41.7567C19.4352 41.3828 19.6991 40.958 20.5356 40.958C21.046 40.958 21.5431 41.0625 21.8786 41.2729C21.9263 41.3035 21.9622 41.2757 21.9622 41.2281V40.2505C21.9622 40.1868 21.9521 40.1494 21.9042 40.1299C21.6233 39.9802 21.1561 39.8867 20.5211 39.8867C19.0535 39.8867 18.2912 40.7524 18.2912 41.8363C18.2912 42.6238 18.6095 43.2669 19.735 43.8786L20.1291 44.0817C20.8881 44.5096 21.0885 44.8224 21.0885 45.22C21.0885 45.6754 20.7713 46.0497 19.9774 46.0497C19.424 46.0497 18.8549 45.8908 18.3577 45.5614C18.3143 45.5359 18.2793 45.5602 18.2793 45.6036V46.6405Z" fill="white"/>
<path fill-rule="evenodd" clip-rule="evenodd" d="M13.2244 46.9515L13.7436 45.0881H15.8569L16.398 46.9591C16.4104 47.0011 16.4392 47.0263 16.4911 47.0263H17.5802C17.6384 47.0263 17.6525 46.9984 17.6379 46.9393L15.5373 40.0526C15.5265 40.0057 15.5086 39.9902 15.4606 39.9902H14.082C14.0435 39.9902 14.024 40.0133 14.024 40.0555C14.0139 40.3775 13.994 40.4786 13.9569 40.6043L12.0865 46.9264C12.0719 46.9998 12.0925 47.0263 12.1577 47.0263H13.1261C13.183 47.0263 13.2097 47.0093 13.2244 46.9515ZM15.2973 42.9559C15.408 43.3573 15.5116 43.7323 15.5821 44.01H14.0212L14.1207 43.6445C14.3738 42.7152 14.6553 41.6818 14.7859 41.0348H14.7968C14.9009 41.5201 15.1095 42.2758 15.2973 42.9559Z" fill="white"/>
<path d="M23.1631 46.7841C23.11 46.7526 23.0967 46.7152 23.0967 46.6405V45.6036C23.0967 45.5602 23.1317 45.5359 23.1751 45.5614C23.6723 45.8908 24.2414 46.0497 24.7948 46.0497C25.5887 46.0497 25.9059 45.6754 25.9059 45.22C25.9059 44.8224 25.7055 44.5096 24.9465 44.0817L24.5523 43.8786C23.4269 43.2669 23.1086 42.6238 23.1086 41.8363C23.1086 40.7524 23.8708 39.8867 25.3385 39.8867C25.9735 39.8867 26.4407 39.9802 26.7216 40.1299C26.7695 40.1494 26.7796 40.1868 26.7796 40.2505V41.2281C26.7796 41.2757 26.7437 41.3035 26.696 41.2729C26.3605 41.0625 25.8634 40.958 25.353 40.958C24.5165 40.958 24.2526 41.3828 24.2526 41.7567C24.2526 42.1571 24.4571 42.4382 25.2012 42.8351L25.55 43.0178C26.7876 43.6809 27.1125 44.3417 27.1125 45.1296C27.1125 46.3128 26.225 47.1221 24.7862 47.1221C24.1536 47.1221 23.5565 47.0039 23.1631 46.7841Z" fill="white"/>
<path d="M31.9676 47.0263C32.0356 47.0263 32.0586 47.0016 32.0695 46.9424L32.2096 46.0258C32.2205 45.9667 32.205 45.9497 32.1398 45.9497H29.3519V43.9694H31.703C31.7578 43.9694 31.7858 43.9539 31.7858 43.8905V42.9698C31.7858 42.912 31.7627 42.8928 31.7088 42.8928H29.3519V41.0669H31.9657C32.0283 41.0669 32.0475 41.0352 32.038 40.9812L31.9344 40.0612C31.9236 40.0043 31.9043 39.9902 31.8404 39.9902H28.2449C28.1809 39.9902 28.1665 40.0114 28.1665 40.0732V46.9408C28.1665 47.0021 28.1871 47.0263 28.252 47.0263H31.9676Z" fill="white"/>
<path d="M34.4666 41.0669H32.6446C32.5822 41.0669 32.5676 41.0439 32.5785 40.979L32.707 40.0709C32.7179 40.0152 32.7363 39.9902 32.799 39.9902H37.3682C37.4309 39.9902 37.4539 40.0073 37.4647 40.0747L37.5462 40.9761C37.5571 41.0474 37.5248 41.0669 37.4712 41.0669H35.6566V46.9355C35.6566 46.9976 35.6299 47.0263 35.571 47.0263H34.556C34.4894 47.0301 34.4666 47.0019 34.4666 46.9393L34.4666 41.0669Z" fill="white"/>
<path d="M38.0933 46.6405C38.0933 46.7152 38.1065 46.7526 38.1596 46.7841C38.553 47.0039 39.1501 47.1221 39.7828 47.1221C41.2216 47.1221 42.1091 46.3128 42.1091 45.1296C42.1091 44.3417 41.7842 43.6809 40.5465 43.0178L40.1977 42.8351C39.4536 42.4382 39.2491 42.1571 39.2491 41.7567C39.2491 41.3828 39.5131 40.958 40.3495 40.958C40.86 40.958 41.3571 41.0625 41.6926 41.2729C41.7403 41.3035 41.7761 41.2757 41.7761 41.2281V40.2505C41.7761 40.1868 41.7661 40.1494 41.7181 40.1299C41.4373 39.9802 40.97 39.8867 40.3351 39.8867C38.8674 39.8867 38.1051 40.7524 38.1051 41.8363C38.1051 42.6238 38.4234 43.2669 39.5489 43.8786L39.943 44.0817C40.7021 44.5096 40.9024 44.8224 40.9024 45.22C40.9024 45.6754 40.5853 46.0497 39.7913 46.0497C39.238 46.0497 38.6688 45.8908 38.1716 45.5614C38.1283 45.5359 38.0933 45.5602 38.0933 45.6036V46.6405Z" fill="white"/>
<path d="M40.5231 18.3858V15.2301C40.5231 13.7941 39.7036 12.484 38.4124 11.8556L28.642 7.101C27.6053 6.59654 26.3944 6.59654 25.3577 7.101L15.5873 11.8556C14.3141 12.4752 13.5002 13.7577 13.4776 15.17C13.4773 15.1901 13.4766 15.21 13.4766 15.2301V19.6554C13.4766 20.6307 14.1342 21.4833 15.0775 21.7309L34.247 26.7341C34.404 26.7731 34.4243 26.9881 34.2773 27.0557L27.9321 30.06C27.3431 30.3442 26.6566 30.3442 26.0676 30.06L20.481 27.3653C19.739 27.0074 19.2674 26.2563 19.2674 25.4326V25.0882H13.4766V28.2235C13.4766 29.6642 14.3013 30.9777 15.5989 31.6036L25.3694 36.3165C26.3996 36.8134 27.6001 36.8134 28.6303 36.3165L38.4007 31.6036C39.6421 31.0048 40.4501 29.7766 40.5179 28.4099C40.521 28.348 40.5231 28.2859 40.5231 28.2235V23.9256C40.5231 22.9504 39.8654 22.0978 38.9221 21.8501L19.6442 16.789L19.7038 16.8026C19.6841 16.7974 19.6667 16.7893 19.6514 16.7792C19.5482 16.7109 19.548 16.545 19.6714 16.4838L26.0609 13.355C26.6536 13.0666 27.346 13.0666 27.9388 13.355L33.5254 16.0736C34.2637 16.4329 34.7322 17.182 34.7322 18.0031V18.3858L40.5231 18.3858Z" fill="#99E83F"/>
</svg>
