<svg width="54" height="54" viewBox="0 0 54 54" fill="none" xmlns="http://www.w3.org/2000/svg">
<path d="M44.2648 0H9.73519C4.35859 0 0 4.35859 0 9.73519V44.2648C0 49.6414 4.35859 54 9.73519 54H44.2648C49.6414 54 54 49.6414 54 44.2648V9.73519C54 4.35859 49.6414 0 44.2648 0Z" fill="#000B1D"/>
<path d="M43.8228 18.5584C43.8228 18.188 43.6756 17.8328 43.4137 17.5708C43.1518 17.3089 42.7966 17.1617 42.4262 17.1617H38.8967V13.4624C38.8967 13.4016 38.8848 13.3415 38.8615 13.2854C38.8383 13.2293 38.8042 13.1783 38.7613 13.1354C38.7183 13.0925 38.6674 13.0584 38.6113 13.0352C38.5552 13.0119 38.4951 13 38.4343 13H30.6091C30.5483 13 30.4882 13.0119 30.4321 13.0352C30.376 13.0584 30.3251 13.0925 30.2821 13.1354C30.2392 13.1783 30.2051 13.2293 30.1819 13.2854C30.1586 13.3415 30.1467 13.4016 30.1467 13.4624V17.1617H23.8967V13.4624C23.8967 13.3397 23.8479 13.2221 23.7612 13.1354C23.6745 13.0487 23.5569 13 23.4342 13H15.5842C15.4616 13 15.344 13.0487 15.2572 13.1354C15.1705 13.2221 15.1218 13.3397 15.1218 13.4624V17.1617H11.3967C11.0263 17.1617 10.671 17.3089 10.4091 17.5708C10.1472 17.8327 10 18.188 10 18.5584L10.0332 36.4856C10.0332 36.6691 10.0693 36.8507 10.1395 37.0201C10.2096 37.1896 10.3125 37.3436 10.4422 37.4733C10.5719 37.603 10.7259 37.7058 10.8953 37.776C11.0648 37.8462 11.2464 37.8824 11.4298 37.8824H42.4592C42.6426 37.8824 42.8242 37.8463 42.9937 37.7761C43.1632 37.7059 43.3171 37.603 43.4468 37.4733C43.5765 37.3436 43.6794 37.1896 43.7496 37.0201C43.8198 36.8507 43.8559 36.6691 43.8559 36.4856L43.8228 18.5584ZM20.4954 32.9519L14.8928 28.2957C14.8069 28.215 14.7385 28.1176 14.6915 28.0094C14.6445 27.9013 14.6201 27.7848 14.6196 27.6669C14.6193 27.5532 14.6416 27.4406 14.6852 27.3357C14.7288 27.2307 14.7929 27.1355 14.8738 27.0556L20.4954 22.4053L21.5433 24.7222L17.9302 27.6816L21.5438 30.6414L20.4954 32.9519ZM25.3481 33.9988H22.6317L23.2206 32.7387L28.6256 21.0232H31.3171L25.3481 33.9988ZM38.9409 28.3006L38.9214 28.3187L33.3193 32.9509L32.2714 30.6341L35.8844 27.6747L32.2714 24.7149L33.3183 22.4049L38.9219 27.0605C39.0077 27.1413 39.0762 27.2387 39.1232 27.3468C39.1702 27.4549 39.1946 27.5715 39.1951 27.6894C39.1954 27.803 39.1731 27.9156 39.1295 28.0206C39.0858 28.1255 39.0217 28.2207 38.9409 28.3006Z" fill="white"/>
</svg>
