<svg width="54" height="54" viewBox="0 0 54 54" fill="none" xmlns="http://www.w3.org/2000/svg">
<path d="M44.2648 0H9.73519C4.35859 0 0 4.35859 0 9.73519V44.2648C0 49.6414 4.35859 54 9.73519 54H44.2648C49.6414 54 54 49.6414 54 44.2648V9.73519C54 4.35859 49.6414 0 44.2648 0Z" fill="#370000"/>
<path fill-rule="evenodd" clip-rule="evenodd" d="M38.0702 32.5048C38.0632 32.7848 38.1212 33.6048 38.1212 33.7398C38.1212 36.0018 37.2432 37.2548 35.1662 37.5668V40.2608C36.4636 40.2787 37.7382 39.9184 38.8342 39.2238C39.2501 38.9679 39.6092 38.6296 39.8895 38.2298C40.1698 37.83 40.3654 37.377 40.4642 36.8988C40.7914 35.5239 40.9336 34.1114 40.8872 32.6988L40.8332 26.8218L35.1662 26.8428V32.5128L38.0702 32.5048ZM31.0702 32.4428C31.0762 32.7208 31.0612 33.5528 31.0622 33.6918C31.0712 36.0058 30.0872 37.2798 28.0092 37.5918V40.2918C29.3425 40.3536 30.6598 39.9809 31.7632 39.2298C32.6758 38.6337 33.341 37.7265 33.6352 36.6768C33.8682 35.2931 33.9353 33.8865 33.8352 32.4868L33.8142 26.8448L27.9782 26.8658L27.9832 32.4508L31.0702 32.4428ZM15.8832 20.9428C15.8672 20.6668 15.9232 19.7698 15.9232 19.6318C15.9232 17.3698 16.9232 16.0318 19.0062 15.7188V13.0258C17.7206 12.9598 16.4503 13.3298 15.4012 14.0758C14.4835 14.6762 13.8047 15.5787 13.4822 16.6268C13.132 18.0596 12.9713 19.5322 13.0042 21.0068V26.4568H18.8852L18.8972 20.9368L15.8832 20.9428ZM25.8182 20.7928V26.5668H20.0992L20.0902 21.1048C20.0153 19.6145 20.116 18.1206 20.3902 16.6538C20.6419 15.6119 21.2698 14.6998 22.1532 14.0928C23.252 13.3445 24.5594 12.963 25.8882 13.0028L25.9002 15.6928C23.8292 16.0028 22.8182 17.3808 22.8182 19.6438C22.8182 19.7808 22.8182 20.4828 22.8182 20.7588L25.8182 20.7928Z" fill="#FA0F00"/>
<path d="M24.525 33.417C23.6585 33.1515 22.8553 32.7121 22.1644 32.1256C21.4736 31.5391 20.9096 30.8179 20.507 30.006C20.471 29.935 20.437 29.864 20.407 29.79L19.44 29.949C19.47 30.02 19.496 30.094 19.528 30.165C19.9781 31.1732 20.6425 32.0711 21.4749 32.7965C22.3073 33.5218 23.2877 34.0571 24.348 34.365C24.421 34.386 24.495 34.402 24.57 34.422L24.746 33.482C24.671 33.458 24.597 33.44 24.525 33.417ZM23.951 36.51C22.4377 36.1181 21.039 35.3725 19.8702 34.3344C18.7014 33.2963 17.7958 31.9955 17.228 30.539C17.202 30.468 17.18 30.393 17.156 30.322L16.199 30.477C16.224 30.55 16.243 30.625 16.268 30.696C16.8737 32.3486 17.8741 33.8281 19.1821 35.0057C20.4901 36.1834 22.0661 37.0235 23.773 37.453C23.848 37.472 23.922 37.487 23.997 37.503L24.173 36.561C24.094 36.543 24.02 36.531 23.951 36.51ZM23.379 39.562C21.2259 39.0564 19.237 38.0107 17.5999 36.5236C15.9628 35.0364 14.7315 33.1568 14.022 31.062C13.998 30.988 13.98 30.914 13.958 30.842L13 30.997L13.066 31.217C13.8095 33.509 15.134 35.5693 16.9105 37.1972C18.687 38.8251 20.8549 39.9651 23.203 40.506L23.425 40.558L23.603 39.61C23.524 39.592 23.451 39.579 23.375 39.562H23.379ZM33.651 24.331C33.1912 23.3331 32.5205 22.4468 31.6851 21.7331C30.8497 21.0194 29.8695 20.4953 28.812 20.197C28.739 20.176 28.665 20.16 28.59 20.14L28.416 21.082C28.491 21.101 28.566 21.119 28.638 21.14C29.5025 21.3978 30.3059 21.828 30.9997 22.4046C31.6935 22.9812 32.2634 23.6923 32.675 24.495C32.711 24.567 32.744 24.638 32.775 24.709L33.741 24.547C33.715 24.478 33.687 24.405 33.651 24.331ZM36.919 23.784C36.3003 22.1425 35.2911 20.6764 33.9785 19.5125C32.666 18.3486 31.0897 17.5219 29.386 17.104C29.313 17.086 29.238 17.072 29.164 17.056L28.99 17.997C29.063 18.015 29.137 18.029 29.212 18.049C30.7221 18.4305 32.1204 19.1639 33.2927 20.1894C34.465 21.2148 35.378 22.5031 35.957 23.949C35.986 24.02 36.007 24.095 36.034 24.166L36.989 24.006C36.966 23.931 36.946 23.857 36.921 23.786L36.919 23.784ZM40.119 23.246C39.3581 20.9687 38.0228 18.9261 36.242 17.3155C34.4612 15.705 32.2951 14.5809 29.953 14.052L29.731 14L29.555 14.949C29.628 14.967 29.702 14.979 29.777 14.997C31.9251 15.4904 33.913 16.5206 35.5547 17.9912C37.1963 19.4619 38.4382 21.3249 39.164 23.406C39.189 23.478 39.207 23.552 39.23 23.626L40.185 23.465C40.166 23.394 40.145 23.321 40.122 23.248L40.119 23.246Z" fill="#FABFBC"/>
</svg>
