<svg width="54" height="54" viewBox="0 0 54 54" fill="none" xmlns="http://www.w3.org/2000/svg">
<path d="M44.2648 0H9.73519C4.35859 0 0 4.35859 0 9.73519V44.2648C0 49.6414 4.35859 54 9.73519 54H44.2648C49.6414 54 54 49.6414 54 44.2648V9.73519C54 4.35859 49.6414 0 44.2648 0Z" fill="#000B1D"/>
<path d="M42.4171 40.9998H35.8951C35.6118 41.005 35.3333 40.9252 35.0951 40.7707C34.8569 40.6162 34.6698 40.3938 34.5575 40.1319L27.4772 23.4715C27.4587 23.4066 27.42 23.3495 27.3667 23.3085C27.3134 23.2676 27.2484 23.245 27.1814 23.2441C27.1143 23.2432 27.0488 23.2641 26.9945 23.3037C26.9402 23.3432 26.8999 23.3993 26.8798 23.4637L22.4674 34.0418C22.4434 34.099 22.4339 34.1613 22.4397 34.2231C22.4454 34.2849 22.4663 34.3443 22.5004 34.3961C22.5346 34.4478 22.5809 34.4902 22.6352 34.5196C22.6896 34.5489 22.7503 34.5643 22.812 34.5643H27.6622C27.8091 34.5643 27.9528 34.6078 28.0753 34.6895C28.1977 34.7711 28.2936 34.8873 28.3509 35.0234L30.4744 39.7791C30.5307 39.9125 30.5532 40.0579 30.5401 40.2022C30.5269 40.3466 30.4784 40.4854 30.3989 40.6063C30.3194 40.7272 30.2114 40.8264 30.0846 40.8951C29.9577 40.9637 29.8159 40.9997 29.6719 40.9998H12.015C11.8822 40.999 11.7517 40.9651 11.635 40.9012C11.5184 40.8374 11.4192 40.7454 11.3465 40.6336C11.2737 40.5218 11.2295 40.3936 11.2179 40.2605C11.2063 40.1274 11.2276 39.9934 11.28 39.8706L22.5111 12.9542C22.6258 12.6693 22.8233 12.4259 23.0777 12.2557C23.332 12.0855 23.6315 11.9964 23.9369 12.0001H30.4147C30.7203 11.9961 31.0199 12.085 31.2744 12.2552C31.5288 12.4255 31.7262 12.6691 31.8407 12.9542L43.1496 39.8706C43.2019 39.9932 43.2233 40.1269 43.2118 40.2599C43.2004 40.3929 43.1565 40.5209 43.084 40.6327C43.0115 40.7444 42.9126 40.8364 42.7963 40.9005C42.6799 40.9645 42.5497 40.9986 42.4171 40.9998Z" fill="#EB1000"/>
</svg>
