<svg width="54" height="54" viewBox="0 0 54 54" fill="none" xmlns="http://www.w3.org/2000/svg">
<path d="M44.2648 0H9.73519C4.35859 0 0 4.35859 0 9.73519V44.2648C0 49.6414 4.35859 54 9.73519 54H44.2648C49.6414 54 54 49.6414 54 44.2648V9.73519C54 4.35859 49.6414 0 44.2648 0Z" fill="#001E36"/>
<path d="M27 47.3455C15.7808 47.3455 6.65332 38.2181 6.65332 26.9989C6.65332 15.7798 15.7808 6.65234 27 6.65234C30.2196 6.65234 33.3055 7.38783 36.172 8.83839C36.4021 8.95477 36.4941 9.23553 36.3778 9.4655C36.2614 9.6955 35.9806 9.78747 35.7507 9.67118C33.016 8.28733 30.0719 7.58568 27 7.58568C16.2954 7.58568 7.58666 16.2944 7.58666 26.9989C7.58666 37.7034 16.2954 46.4122 27 46.4122C37.7047 46.4122 46.4133 37.7034 46.4133 26.9989C46.4133 23.9124 45.7051 20.9554 44.3082 18.2103C44.1914 17.9805 44.2828 17.6996 44.5125 17.5827C44.742 17.4659 45.023 17.5572 45.1401 17.787C46.6042 20.6645 47.3466 23.7639 47.3466 26.9989C47.3466 38.2181 38.2192 47.3455 27 47.3455Z" fill="#31A8FF"/>
<path d="M15.3848 34.6834V18.1972C15.3848 18.0682 15.4364 18.0166 15.5654 18.0166C16.6232 17.965 18.6614 17.9392 20.6222 17.9392C25.8338 17.9392 27.614 20.8288 27.614 23.6152C27.614 27.7948 24.389 29.575 20.4416 29.575C19.7192 29.575 19.5902 29.575 18.971 29.575V34.6576C18.971 34.8124 18.9194 34.864 18.7388 34.864H15.5912C15.4622 34.864 15.3848 34.8124 15.3848 34.6834ZM18.971 21.0868V26.4274C19.4096 26.4532 19.6934 26.4532 20.4158 26.4532C22.4282 26.4532 24.0794 25.834 24.0794 23.6926C24.0794 22.0672 22.97 21.0352 20.6996 21.0352C19.8998 21.0352 19.2032 21.061 18.971 21.0868Z" fill="#31A8FF"/>
<path d="M37.8304 25.3954C37.0048 24.9826 35.689 24.6472 34.528 24.6472C33.3154 24.6472 32.9026 25.1116 32.9026 25.5502C32.9026 25.9888 33.238 26.2984 34.7602 26.8918C37.882 28.027 38.8624 29.2396 38.8624 31.0714C38.8624 33.4966 36.9532 35.122 33.5476 35.122C31.948 35.122 30.5806 34.8382 29.7808 34.4254C29.6518 34.348 29.626 34.2706 29.626 34.1158V31.3294C29.626 31.1746 29.7034 31.123 29.8066 31.2004C30.9934 31.9228 32.4382 32.2324 33.5992 32.2324C34.8118 32.2324 35.3536 31.897 35.3536 31.3294C35.3536 30.8392 34.9408 30.478 33.4186 29.9104C30.5032 28.8268 29.5228 27.6142 29.5228 25.7566C29.5228 23.7442 31.1482 21.8092 34.5796 21.8092C36.1018 21.8092 37.2886 21.9898 37.9336 22.3252C38.0884 22.4026 38.0884 22.5058 38.0884 22.6606V25.2406C38.0884 25.3696 38.011 25.4728 37.8304 25.3954Z" fill="#31A8FF"/>
</svg>
