<svg width="54" height="54" viewBox="0 0 54 54" fill="none" xmlns="http://www.w3.org/2000/svg">
<path d="M44.2692 0H9.73958C4.36299 0 0.00439453 4.35859 0.00439453 9.73519V44.2648C0.00439453 49.6414 4.36299 54 9.73958 54H44.2692C49.6458 54 54.0044 49.6414 54.0044 44.2648V9.73519C54.0044 4.35859 49.6458 0 44.2692 0Z" fill="#470137"/>
<path d="M13.9138 14.6172C20.2732 14.6172 25.449 18.2805 25.449 26.6799C25.449 34.7837 20.1248 39.4089 13.8767 39.4089H5.33618V14.6172H13.9138ZM11.8806 33.4514H14.3572C16.9456 33.4514 18.4983 30.8245 18.4983 26.939C18.4983 22.3137 16.9456 20.3896 14.2468 20.3896H11.8806V33.4514Z" fill="#FF61F6"/>
<path d="M33.0359 20.0938C33.5906 23.7942 34.0711 27.6423 34.5886 31.4165C35.1433 27.7903 35.7717 24.1272 36.2893 20.5378L41.3171 20.575C41.9089 24.2012 42.5378 27.8643 43.1292 31.5647C43.5359 27.7163 44.0906 23.905 44.571 20.0938H50.2278L46.4939 39.3721L40.615 39.4092L38.7664 29.8994L36.9177 39.4092H30.7805L26.8611 20.0938H33.0359Z" fill="#FF61F6"/>
</svg>
