<svg width="54" height="54" viewBox="0 0 54 54" fill="none" xmlns="http://www.w3.org/2000/svg">
<path d="M44.2648 0H9.73519C4.35859 0 0 4.35859 0 9.73519V44.2648C0 49.6414 4.35859 54 9.73519 54H44.2648C49.6414 54 54 49.6414 54 44.2648V9.73519C54 4.35859 49.6414 0 44.2648 0Z" fill="#B30B00"/>
<path d="M36.709 10.21C38.2728 8.69083 41.2106 9.25453 42.4277 9.57617C42.6255 9.62845 42.6514 9.89899 42.4678 9.98926L39.2383 11.5771C39.1607 11.6159 39.109 11.6919 39.1016 11.7783L38.8721 14.2217C38.856 14.4038 38.9406 14.5804 39.0928 14.6816L41.1416 16.0352C41.2145 16.0829 41.307 16.089 41.3857 16.0518L44.7568 14.3896C44.9216 14.3086 45.1078 14.4518 45.0713 14.6318C44.904 15.4571 44.4593 17.2334 43.6113 18.0244C41.4759 20.099 38.9988 18.9942 37.2559 20.6875L30.4619 27.3984L43.7461 40.4814C44.3417 41.0773 44.3417 42.0438 43.7461 42.6396L42.3135 44.0713C41.7176 44.6669 40.7511 44.6669 40.1553 44.0713L27.0928 30.7275L20.6924 37.0518C17.6758 40.0067 19.127 42.1982 16.9766 44.2891C15.5684 45.6571 12.951 45.1931 11.7852 44.8945C11.5747 44.8405 11.5452 44.5539 11.7402 44.458L14.6455 43.0303C14.717 42.9945 14.7647 42.9234 14.7715 42.8438L14.9824 40.5918C14.9972 40.4239 14.9196 40.2613 14.7793 40.168L12.8906 38.9209C12.8233 38.8769 12.7377 38.8708 12.665 38.9053L9.61328 40.4102C9.43869 40.4962 9.24159 40.3439 9.28125 40.1533C9.44444 39.3693 9.85296 37.7971 10.6143 37.0869C12.5824 35.175 14.6888 36.1101 16.4316 34.417L23.6865 27.248L18.0391 21.4795L17.2344 22.2832C16.7113 22.8062 15.8651 22.8117 15.335 22.2959L13.8564 23.7217C13.8697 23.7399 14.3993 24.4767 13.8779 24.998L12.4385 26.4385C12.1746 26.7025 11.7465 26.7023 11.4824 26.4385L7.66504 22.6221C7.40132 22.358 7.40202 21.9298 7.66602 21.666C7.68334 21.6487 9.11905 20.2123 9.12891 20.2031C9.49625 19.8692 10.0655 19.8963 10.3994 20.2637L11.7979 18.8037L11.4785 18.4961C11.4775 18.4951 11.4766 18.4941 11.4756 18.4932C10.9483 17.9641 10.9494 17.1073 11.4785 16.5801L16.1953 11.8662C20.7293 7.33297 29.0115 10.4649 28.8428 11.3096C28.674 12.1542 25.0207 11.0906 23.3701 12.7412C22.9775 13.1338 21.1094 15.2305 21.1094 15.2305L21.7441 15.8652C22.2721 16.3934 22.2721 17.2492 21.7441 17.7773L21.2207 18.2979L26.9922 23.9814L32.9951 18.0518C36.0117 15.0967 34.3752 12.4786 36.709 10.21Z" fill="white"/>
</svg>
