<svg width="54" height="54" viewBox="0 0 54 54" fill="none" xmlns="http://www.w3.org/2000/svg">
<path d="M44.2648 0H9.73519C4.35859 0 0 4.35859 0 9.73519V44.2648C0 49.6414 4.35859 54 9.73519 54H44.2648C49.6414 54 54 49.6414 54 44.2648V9.73519C54 4.35859 49.6414 0 44.2648 0Z" fill="#000B1D"/>
<path fill-rule="evenodd" clip-rule="evenodd" d="M39.9433 37.9637C39.2406 37.9663 38.5622 38.2215 38.032 38.6827L34.4068 35.0575C36.3203 32.6766 37.3705 29.7175 37.3861 26.663C37.3768 23.7745 36.4121 20.9703 34.6423 18.6874L38.0779 15.2053C38.6358 15.6576 39.3405 15.8892 40.058 15.856C40.7756 15.8228 41.4559 15.5272 41.9697 15.0253C42.4835 14.5234 42.7951 13.8502 42.8451 13.1337C42.8952 12.4171 42.6802 11.7072 42.2411 11.1387C41.802 10.5703 41.1694 10.183 40.4635 10.0504C39.7576 9.91776 39.0275 10.0491 38.4121 10.4195C37.7967 10.7899 37.3387 11.3734 37.1254 12.0593C36.912 12.7452 36.958 13.4855 37.2547 14.1397L33.7787 17.6654C32.5555 16.351 31.0753 15.3019 29.43 14.5832C27.7846 13.8646 26.0091 13.4916 24.2136 13.4875C20.7212 13.5058 17.3766 14.8987 14.9035 17.3647C12.4305 19.8307 11.0282 23.1715 11 26.6638C11.0184 30.1825 12.4098 33.555 14.8779 36.0632C17.3459 38.5713 20.6956 40.0168 24.2136 40.0919C25.9575 40.0814 27.6814 39.7193 29.282 39.0271C30.8827 38.3348 32.3273 37.3268 33.5293 36.0633L37.2229 39.7616C36.9745 40.3457 36.9209 40.9943 37.07 41.6113C37.2191 42.2282 37.563 42.7808 38.0508 43.187C38.5385 43.5932 39.1441 43.8314 39.7779 43.8665C40.4117 43.9015 41.0399 43.7315 41.5694 43.3815C42.099 43.0316 42.5017 42.5203 42.7179 41.9235C42.9341 41.3268 42.9524 40.6762 42.7699 40.0683C42.5874 39.4603 42.214 38.9273 41.7049 38.5483C41.1957 38.1692 40.578 37.9642 39.9433 37.9637ZM34.7402 26.6809C34.7242 29.0272 33.9447 31.3046 32.5196 33.1687L27.7736 28.4227C28.0133 27.983 28.1484 27.4939 28.1682 26.9935C28.188 26.493 28.0921 25.9948 27.8878 25.5375L32.7505 20.6057C34.0358 22.3713 34.732 24.497 34.7402 26.6809ZM24.2821 37.4072C21.4821 37.3333 18.8209 36.1723 16.8622 34.1701C14.9035 32.1679 13.8012 29.4818 13.7889 26.6809C13.8137 23.9071 14.9277 21.2543 16.8907 19.2945C18.8537 17.3348 21.5083 16.2251 24.2821 16.2048C25.715 16.2101 27.1313 16.5116 28.4421 17.0904C29.753 17.6692 30.93 18.5127 31.8993 19.568L27.1028 24.433C26.4378 23.8057 25.5577 23.4569 24.6435 23.4583C23.7364 23.4583 22.8665 23.8187 22.2252 24.46C21.5838 25.1014 21.2235 25.9713 21.2235 26.8783C21.2235 27.7854 21.5838 28.6553 22.2252 29.2966C22.8665 29.938 23.7364 30.2983 24.6435 30.2983C25.4796 30.2969 26.2885 30.0014 26.9287 29.4635L31.6568 34.1917C30.7081 35.1977 29.5657 36.0014 28.2983 36.5544C27.031 37.1074 25.6648 37.3983 24.2821 37.4096V37.4072Z" fill="white"/>
</svg>
