<svg width="54" height="54" viewBox="0 0 54 54" fill="none" xmlns="http://www.w3.org/2000/svg">
<path d="M44.2648 0H9.73519C4.35859 0 0 4.35859 0 9.73519V44.2648C0 49.6414 4.35859 54 9.73519 54H44.2648C49.6414 54 54 49.6414 54 44.2648V9.73519C54 4.35859 49.6414 0 44.2648 0Z" fill="#1E3101"/>
<path d="M24.2431 33.221H15.6962L13.9893 38.8891C13.9657 38.9876 13.9084 39.0747 13.8274 39.1355C13.7463 39.1963 13.6466 39.2269 13.5455 39.2221H9.21638C8.9698 39.2221 8.88337 39.0864 8.9571 38.8151L16.3251 17.5354C16.509 16.8838 16.6329 16.2167 16.6952 15.5425C16.6902 15.5073 16.6934 15.4715 16.7047 15.4378C16.7159 15.4041 16.7348 15.3735 16.7599 15.3484C16.785 15.3233 16.8156 15.3043 16.8493 15.2931C16.883 15.2818 16.9188 15.2785 16.954 15.2835H22.8368C23.0092 15.2835 23.1083 15.3455 23.1327 15.4686L31.5645 38.852C31.6382 39.0991 31.5641 39.2224 31.3423 39.2221H26.5323C26.4497 39.2313 26.3666 39.21 26.2984 39.1623C26.2303 39.1147 26.1819 39.0439 26.1622 38.9631L24.2431 33.221ZM17.0283 29.3148H22.874C22.726 28.8216 21.9485 25.9164 21.727 25.2129C21.5048 24.5101 21.2828 23.8071 21.061 23.1041C20.8388 22.4009 20.6353 21.7225 20.4506 21.0689C20.2656 20.4156 20.0991 19.8174 19.9511 19.2745H19.914C19.7059 20.2738 19.4464 21.2618 19.1366 22.2345C18.7909 23.3446 18.4395 24.4793 18.0824 25.6385C17.7246 26.7982 17.373 28.3284 17.0283 29.3148Z" fill="#99E83F"/>
<path d="M34.0683 20.4403H38.0068C38.1163 20.4413 38.2226 20.4779 38.3095 20.5446C38.3963 20.6113 38.4591 20.7046 38.4882 20.8102C38.5758 20.9725 38.6381 21.1472 38.6728 21.3283C38.7221 21.5502 38.7592 22.2165 38.7841 22.4755C38.8085 22.7345 38.8209 23.012 38.8212 23.308C39.5074 22.4666 40.341 21.7571 41.2812 21.2143C42.3154 20.6659 43.4756 20.399 44.6455 20.4403C44.6907 20.4339 44.7368 20.4381 44.7801 20.4526C44.8235 20.467 44.8628 20.4914 44.8951 20.5237C44.9274 20.556 44.9518 20.5954 44.9662 20.6387C44.9807 20.682 44.9849 20.7281 44.9785 20.7733V25.3647C44.9785 25.5375 44.8545 25.6237 44.6083 25.6237C43.8188 25.5523 43.0233 25.5886 42.2436 25.7316C41.5815 25.8631 40.9361 26.0679 40.3193 26.3419C39.8132 26.5441 39.3457 26.832 38.9374 27.193V38.8573C38.9374 39.0792 38.8388 39.1902 38.6415 39.1903H34.4013C34.351 39.1975 34.2998 39.1929 34.2516 39.1768C34.2034 39.1608 34.1596 39.1337 34.1237 39.0978C34.0878 39.0619 34.0607 39.0181 34.0447 38.9699C34.0286 38.9217 34.024 38.8705 34.0312 38.8202V26.1572C34.0312 25.6147 34.025 25.0411 34.0127 24.4364C34 23.8324 33.9816 23.2343 33.9575 22.642C33.9321 22.05 33.8833 21.119 33.809 20.6994C33.7998 20.6635 33.8001 20.6259 33.8098 20.5902C33.8196 20.5545 33.8385 20.522 33.8647 20.4958C33.8909 20.4697 33.9234 20.4508 33.9591 20.4411C33.9949 20.4313 34.0325 20.4311 34.0683 20.4403Z" fill="#99E83F"/>
</svg>
