<svg width="54" height="54" viewBox="0 0 54 54" fill="none" xmlns="http://www.w3.org/2000/svg">
<path d="M44.2648 0H9.73519C4.35859 0 0 4.35859 0 9.73519V44.2648C0 49.6414 4.35859 54 9.73519 54H44.2648C49.6414 54 54 49.6414 54 44.2648V9.73519C54 4.35859 49.6414 0 44.2648 0Z" fill="#B30B00"/>
<path d="M44.0608 31.2C41.4608 28.5 34.3608 29.6 32.6608 29.8C30.1608 27.4 28.4608 24.5 27.8608 23.5C28.7608 20.8 29.3608 18.1 29.4608 15.2C29.4608 12.7 28.4608 10 25.6608 10C24.6608 10 23.7608 10.6 23.2608 11.4C22.0608 13.5 22.5608 17.7 24.4608 22C23.3608 25.1 22.3608 28.1 19.5608 33.4C16.6608 34.6 10.5608 37.4 10.0608 40.4C9.86082 41.3 10.1608 42.2 10.8608 42.9C11.5608 43.5 12.4608 43.8 13.3608 43.8C17.0608 43.8 20.6608 38.7 23.1608 34.4C25.2608 33.7 28.5608 32.7 31.8608 32.1C35.7608 35.5 39.1608 36 40.9608 36C43.3608 36 44.2608 35 44.5608 34.1C45.0608 33.1 44.7608 32 44.0608 31.2ZM41.5608 32.9C41.4608 33.6 40.5608 34.3 38.9608 33.9C37.0608 33.4 35.3608 32.5 33.8608 31.3C35.1608 31.1 38.0608 30.8 40.1608 31.2C40.9608 31.4 41.7608 31.9 41.5608 32.9ZM24.8608 12.3C25.0608 12 25.3608 11.8 25.6608 11.8C26.5608 11.8 26.7608 12.9 26.7608 13.8C26.6608 15.9 26.2608 18 25.5608 20C24.0608 16 24.3608 13.2 24.8608 12.3ZM24.6608 31.7C25.4608 30.1 26.5608 27.3 26.9608 26.1C27.8608 27.6 29.3608 29.4 30.1608 30.2C30.1608 30.3 27.0608 30.9 24.6608 31.7ZM18.7608 35.7C16.4608 39.5 14.0608 41.9 12.7608 41.9C12.5608 41.9 12.3608 41.8 12.1608 41.7C11.8608 41.5 11.7608 41.2 11.8608 40.8C12.1608 39.4 14.7608 37.5 18.7608 35.7Z" fill="white"/>
</svg>
