<svg width="54" height="54" viewBox="0 0 54 54" fill="none" xmlns="http://www.w3.org/2000/svg">
<path d="M44.2648 0H9.73519C4.35859 0 0 4.35859 0 9.73519V44.2648C0 49.6414 4.35859 54 9.73519 54H44.2648C49.6414 54 54 49.6414 54 44.2648V9.73519C54 4.35859 49.6414 0 44.2648 0Z" fill="#FA0F00"/>
<path d="M43.9998 31.2C41.3998 28.5 34.2998 29.6 32.5998 29.8C30.0998 27.4 28.3998 24.5 27.7998 23.5C28.6998 20.8 29.2998 18.1 29.3998 15.2C29.3998 12.7 28.3998 10 25.5998 10C24.5998 10 23.6998 10.6 23.1998 11.4C21.9998 13.5 22.4998 17.7 24.3998 22C23.2998 25.1 22.2998 28.1 19.4998 33.4C16.5998 34.6 10.4998 37.4 9.99979 40.4C9.79979 41.3 10.0998 42.2 10.7998 42.9C11.4998 43.5 12.3998 43.8 13.2998 43.8C16.9998 43.8 20.5998 38.7 23.0998 34.4C25.1998 33.7 28.4998 32.7 31.7998 32.1C35.6998 35.5 39.0998 36 40.8998 36C43.2998 36 44.1998 35 44.4998 34.1C44.9998 33.1 44.6998 32 43.9998 31.2ZM41.4998 32.9C41.3998 33.6 40.4998 34.3 38.8998 33.9C36.9998 33.4 35.2998 32.5 33.7998 31.3C35.0998 31.1 37.9998 30.8 40.0998 31.2C40.8998 31.4 41.6998 31.9 41.4998 32.9ZM24.7998 12.3C24.9998 12 25.2998 11.8 25.5998 11.8C26.4998 11.8 26.6998 12.9 26.6998 13.8C26.5998 15.9 26.1998 18 25.4998 20C23.9998 16 24.2998 13.2 24.7998 12.3ZM24.5998 31.7C25.3998 30.1 26.4998 27.3 26.8998 26.1C27.7998 27.6 29.2998 29.4 30.0998 30.2C30.0998 30.3 26.9998 30.9 24.5998 31.7ZM18.6998 35.7C16.3998 39.5 13.9998 41.9 12.6998 41.9C12.4998 41.9 12.2998 41.8 12.0998 41.7C11.7998 41.5 11.6998 41.2 11.7998 40.8C12.0998 39.4 14.6998 37.5 18.6998 35.7Z" fill="white"/>
</svg>
