<svg width="54" height="54" viewBox="0 0 54 54" fill="none" xmlns="http://www.w3.org/2000/svg">
<path d="M44.2648 0H9.73519C4.35859 0 0 4.35859 0 9.73519V44.2648C0 49.6414 4.35859 54 9.73519 54H44.2648C49.6414 54 54 49.6414 54 44.2648V9.73519C54 4.35859 49.6414 0 44.2648 0Z" fill="#1E3101"/>
<path d="M25.7119 15.665L25.6753 22.1406C24.269 21.0674 21.457 19.8833 18.0156 19.8833C15.9805 19.8833 15.1665 20.5493 15.1665 21.4744C15.1665 22.3996 15.7954 22.7695 18.4966 23.5466C25.6011 25.6186 27.4141 28.061 27.4141 31.7981C27.4141 36.7195 23.3438 39.7537 16.9795 39.7537C13.1685 39.7537 10.2822 38.8286 8.06201 37.5337L8.09863 30.7991C10.3931 32.5752 13.7603 33.8704 16.9424 33.8704C18.9775 33.8704 19.9028 33.3152 19.9028 32.2422C19.9028 31.1692 18.9404 30.6511 16.3135 29.948C11.2812 28.542 7.729 26.8027 7.729 21.9556C7.729 17.2561 11.54 14 18.0156 14C21.0127 14 23.9731 14.5549 25.7119 15.665Z" fill="#99E83F"/>
<path d="M46.2358 37.9407C43.8306 39.0508 41.0923 39.6428 37.6514 39.6428C32.8779 39.6428 29.1406 37.6445 29.1406 33.2043C29.1406 28.727 32.9888 27.0989 37.4292 27.0989C38.4653 27.0989 39.3164 27.1728 40.0195 27.2839V27.0618C40.0195 25.7668 38.9834 24.8418 36.3931 24.8418C34.6543 24.8418 32.6929 25.2856 30.8428 26.0259L30.8057 20.8454C32.7295 20.1054 34.9131 19.6243 37.4292 19.6243C43.0537 19.6243 46.2359 22.1775 46.2359 27.8389L46.2358 37.9407ZM40.0195 31.5022C39.5752 31.3542 38.9834 31.2432 38.1323 31.2432C36.4668 31.2432 35.2832 31.7241 35.2832 33.0564C35.2832 34.3884 36.4302 35.0173 38.0581 35.0173C38.8721 35.0173 39.501 34.9065 40.0195 34.6843V31.5022Z" fill="#99E83F"/>
</svg>
