<svg width="54" height="54" viewBox="0 0 54 54" fill="none" xmlns="http://www.w3.org/2000/svg">
<path d="M44.2692 0H9.73958C4.36299 0 0.00439453 4.35859 0.00439453 9.73519V44.2648C0.00439453 49.6414 4.36299 54 9.73958 54H44.2692C49.6458 54 54.0044 49.6414 54.0044 44.2648V9.73519C54.0044 4.35859 49.6458 0 44.2692 0Z" fill="#470137"/>
<path d="M17.0886 21.916L21.2668 14.4414H29.0681L21.5623 26.4673L29.5115 39.2332H21.6365L16.9783 31.3516L12.5046 39.2332H4.70337L12.4675 27.0593L4.66626 14.4414H12.5784L17.0886 21.916Z" fill="#FF61F6"/>
<path d="M29.3049 29.6863C29.3049 22.9517 34.3328 19.5845 39.5462 19.5845C40.2488 19.5845 40.988 19.6584 41.4314 19.7327V13.6641H47.9021V37.9749C46.3489 38.752 43.28 39.5659 39.9529 39.5659C34.259 39.5659 29.3049 36.3467 29.3049 29.6863ZM41.4314 34.1636V25.0979C40.9881 24.95 40.4334 24.8389 39.6941 24.8389C37.6609 24.8389 35.7752 26.023 35.7752 29.5752C35.7752 32.8316 37.4754 34.3115 39.7312 34.3115C40.2488 34.3115 40.9509 34.2747 41.4314 34.1636Z" fill="#FF61F6"/>
</svg>
