<svg width="54" height="54" viewBox="0 0 54 54" fill="none" xmlns="http://www.w3.org/2000/svg">
<path d="M9.73535 1H44.2646C49.089 1 53 4.91104 53 9.73535V44.2646C53 49.089 49.089 53 44.2646 53H9.73535C4.91104 53 1 49.089 1 44.2646V9.73535C1 4.91104 4.91104 1 9.73535 1Z" fill="url(#paint0_radial_1832_469)" stroke="#AAA0FF" stroke-width="2"/>
<path fill-rule="evenodd" clip-rule="evenodd" d="M31.629 32.1061C32.1289 31.9779 32.6579 32.0318 33.1896 32.2876C33.6537 32.5108 33.9602 32.8735 34.0627 33.3434C34.16 33.7893 34.0601 34.2696 33.8576 34.7317C33.453 35.6551 32.5601 36.6864 31.3684 37.6419C30.8502 38.0573 30.2677 38.4647 29.6317 38.848C29.6494 38.9509 29.6702 39.0508 29.6943 39.1472C29.9046 39.9887 30.3166 40.4382 30.8867 40.5095C32.2927 40.6854 33.5986 39.8461 34.6899 38.8489C35.1312 38.4457 35.5153 38.0378 35.8454 37.6874C35.9174 37.6109 35.9868 37.5373 36.0537 37.4669C36.2348 37.2765 36.4074 37.1 36.5573 36.9732C36.6319 36.9101 36.7169 36.8453 36.8072 36.7967C36.8864 36.754 37.0379 36.6855 37.2211 36.7131C37.4044 36.741 37.5751 36.854 37.6575 37.0471C37.7217 37.1977 37.7092 37.3453 37.6964 37.4295C37.6697 37.6062 37.5895 37.8087 37.5128 37.9859C37.4468 38.1385 37.3754 38.2914 37.3025 38.4474C37.1811 38.7073 37.0557 38.9757 36.9449 39.2653C36.8607 39.4854 36.7972 39.6893 36.7643 39.869C36.7306 40.0522 36.7343 40.1806 36.7564 40.264C36.7745 40.3324 36.8043 40.3739 36.8629 40.4094C36.9355 40.4532 37.0835 40.5045 37.3649 40.506C37.4637 40.5063 37.6688 40.4524 37.9708 40.3045C38.2562 40.1647 38.576 39.967 38.8827 39.7444C39.1894 39.5219 39.4721 39.2826 39.6862 39.0646C39.9179 38.8287 40.0141 38.6725 40.0315 38.6161C40.1069 38.3726 40.3653 38.2362 40.6088 38.3116C40.8523 38.3869 40.9886 38.6454 40.9133 38.8889C40.8248 39.1749 40.5845 39.4673 40.3447 39.7113C40.0875 39.9733 39.7638 40.2455 39.4247 40.4915C39.0857 40.7374 38.7203 40.9652 38.3768 41.1334C38.0499 41.2935 37.683 41.4301 37.3608 41.429C36.984 41.427 36.6512 41.36 36.3854 41.1993C36.1055 41.0301 35.9383 40.7807 35.8641 40.5001C35.7939 40.2345 35.8099 39.9559 35.8564 39.7024C35.9036 39.4454 35.9881 39.183 36.0828 38.9354C36.1171 38.8458 36.1545 38.7541 36.1935 38.6621C35.9324 38.9348 35.636 39.2347 35.3125 39.5303C34.1919 40.5543 32.6122 41.6555 30.7722 41.4254C29.6553 41.2857 29.0521 40.3842 28.7989 39.371C28.795 39.3557 28.7913 39.3404 28.7876 39.325C26.6179 40.4733 23.9499 41.307 21.1344 41.307H12.7575C12.5026 41.307 12.296 41.1003 12.296 40.8455C12.296 40.5906 12.5026 40.384 12.7575 40.384H21.1344C23.9073 40.384 26.5445 39.5183 28.6475 38.3513C28.5997 37.5729 28.6834 36.7315 28.8696 35.9347C29.1402 34.7762 29.6437 33.6426 30.3527 32.8996C30.7105 32.5246 31.1373 32.2322 31.629 32.1061ZM29.5581 37.8066C30.002 37.5208 30.4146 37.2236 30.791 36.9218C31.9271 36.0109 32.6923 35.0913 33.0123 34.3612C33.1721 33.9965 33.2011 33.7245 33.1609 33.5401C33.1259 33.3798 33.0285 33.2343 32.7895 33.1193C32.4376 32.9501 32.131 32.9303 31.8582 33.0002C31.5774 33.0722 31.2944 33.2497 31.0205 33.5368C30.4659 34.1179 30.0177 35.0774 29.7684 36.1447C29.638 36.7028 29.5664 37.2714 29.5581 37.8066Z" fill="#DDD8FF"/>
<path d="M30.13 12.7734L13.909 29.0014L11.835 37.2834L20.1121 35.2065L36.3311 18.9784L30.13 12.7734Z" fill="#AAA0FF"/>
<defs>
<radialGradient id="paint0_radial_1832_469" cx="0" cy="0" r="1" gradientTransform="matrix(22.2059 21.317 20.3665 -22.2141 23.3031 21.0226)" gradientUnits="userSpaceOnUse">
<stop stop-color="#28254A"/>
<stop offset="0.9833" stop-color="#03042B"/>
<stop offset="1" stop-color="#03042B"/>
</radialGradient>
</defs>
</svg>
