<svg width="54" height="54" viewBox="0 0 54 54" fill="none" xmlns="http://www.w3.org/2000/svg">
<path d="M44.2648 0H9.73519C4.35859 0 0 4.35859 0 9.73519V44.2648C0 49.6414 4.35859 54 9.73519 54H44.2648C49.6414 54 54 49.6414 54 44.2648V9.73519C54 4.35859 49.6414 0 44.2648 0Z" fill="#1E3101"/>
<path d="M25.124 15.665L25.0869 22.1406C23.6807 21.0674 20.8687 19.8833 17.4272 19.8833C15.3921 19.8833 14.5781 20.5493 14.5781 21.4744C14.5781 22.3996 15.207 22.7695 17.9082 23.5466C25.0127 25.6186 26.8262 28.061 26.8262 31.7981C26.8262 36.7195 22.7559 39.7537 16.3911 39.7537C12.5801 39.7537 9.69385 38.8286 7.47364 37.5337L7.51075 30.7991C9.8047 32.5752 13.1719 33.8704 16.3545 33.8704C18.3897 33.8704 19.3145 33.3152 19.3145 32.2422C19.3145 31.1692 18.3525 30.6511 15.7251 29.948C10.6929 28.542 7.14062 26.8027 7.14062 21.9556C7.14062 17.2561 10.9521 14 17.4272 14C20.4248 14 23.3848 14.5549 25.124 15.665Z" fill="#99E83F"/>
<path d="M30.3945 44.416V38.9768C31.9492 39.7168 33.8359 40.0498 35.686 40.0498C37.9805 40.0498 39.4604 39.4206 40.0527 37.8296C39.5342 37.9035 38.9053 37.9775 38.165 37.9775C33.022 37.9775 28.4336 35.3135 28.4336 29.134C28.4336 22.6584 33.6142 19.6243 39.0903 19.6243C42.2353 19.6243 44.8628 20.1423 46.8242 20.9934V34.2034C46.8242 42.1589 42.3838 45.341 36.0933 45.341C33.688 45.341 31.9492 45.0452 30.3945 44.416ZM38.6465 32.8713C39.2012 32.8713 39.8306 32.7974 40.3486 32.6863V25.0266C39.9785 24.9158 39.2383 24.7678 38.5723 24.7678C36.7593 24.7678 34.9092 25.6929 34.9092 28.801C34.9092 31.7612 36.7222 32.8342 38.6465 32.8713Z" fill="#99E83F"/>
</svg>
