<svg width="54" height="54" viewBox="0 0 54 54" fill="none" xmlns="http://www.w3.org/2000/svg">
<path d="M44.2648 0H9.73519C4.35859 0 0 4.35859 0 9.73519V44.2648C0 49.6414 4.35859 54 9.73519 54H44.2648C49.6414 54 54 49.6414 54 44.2648V9.73519C54 4.35859 49.6414 0 44.2648 0Z" fill="#DBDCDD"/>
<path d="M25.9963 32.9253L32.4308 44.0872C35.0805 43.2452 37.498 41.7984 39.4922 39.8612C41.4864 37.924 43.0026 35.5494 43.921 32.9253H25.9963ZM27.0048 9.07424C25.9034 9.07255 24.8043 9.17411 23.7219 9.37758L32.721 24.9714L39.1555 13.824C35.8492 10.7651 31.5091 9.06854 27.0048 9.07424ZM40.6157 15.359L31.6534 30.8872H44.4922C45.0965 28.1757 45.0608 25.3607 44.388 22.6653C43.7151 19.97 42.4236 17.4684 40.6157 15.359ZM21.4041 29.0488L14.9289 40.2514C16.9898 42.1295 19.4607 43.5005 22.1449 44.2553C24.8291 45.0101 27.6524 45.1279 30.3901 44.5993L21.4041 29.0488ZM9.50423 23.1225C8.89853 25.8494 8.94096 28.6805 9.62812 31.3881C10.3153 34.0956 11.628 36.6043 13.4608 38.7124L22.4573 23.1185L9.50423 23.1225ZM21.651 9.89234C18.987 10.73 16.5552 12.1778 14.5491 14.1205C12.5429 16.0633 11.0179 18.4474 10.0952 21.0831H28.1249L21.651 9.89234Z" fill="#510F17"/>
</svg>
